<svg width="243" height="251" viewBox="0 0 243 251" fill="none" xmlns="http://www.w3.org/2000/svg">
<path d="M0.215576 242.948L3.71646 246.516C6.58272 249.387 10.4693 251 14.5218 251H228.444C232.498 250.998 236.387 249.386 239.256 246.516L242.816 242.948H0.215576Z" fill="black"/>
<path d="M55.1508 103H187.849C190.008 103 192.078 103.859 193.605 105.389C195.131 106.919 195.989 108.993 195.989 111.157V211.875H47.0171V111.157C47.0162 110.086 47.226 109.025 47.6343 108.036C48.0427 107.046 48.6417 106.147 49.3971 105.389C50.1524 104.632 51.0494 104.031 52.0366 103.621C53.0239 103.211 54.0821 103 55.1508 103Z" fill="black"/>
<path d="M191.218 111.157H51.7881V207.094H191.218V111.157Z" fill="white"/>
<path d="M195.989 211.875H47.0174L0.407002 241.603C0.245805 241.708 0.122641 241.862 0.0558004 242.043C-0.0110405 242.224 -0.0180212 242.421 0.0358787 242.606C0.0897785 242.791 0.201704 242.954 0.355069 243.07C0.508433 243.186 0.695083 243.25 0.887373 243.252H242.113C242.305 243.25 242.492 243.186 242.645 243.07C242.798 242.954 242.91 242.791 242.964 242.606C243.018 242.421 243.011 242.224 242.944 242.043C242.877 241.862 242.754 241.708 242.593 241.603L195.989 211.875Z" fill="#AAAAAA"/>
<path d="M146.674 241.088H95.1938L100.182 226.429H141.686L146.674 241.088Z" fill="#565656"/>
<path d="M184.329 215.152L181.696 213.174H174.991L177.314 215.152H184.329ZM133.862 215.152L133.204 213.174H125.965L126.294 215.152H133.862ZM150.708 215.152L149.392 213.174H142.325L143.318 215.152H150.708ZM125.09 213.174H117.851V215.152H125.412L125.09 213.174ZM175.932 215.152L173.609 213.174H166.811L168.785 215.152H175.932ZM159.118 215.152L157.466 213.174H150.458L151.774 215.152H159.118ZM142.285 215.152L141.291 213.174H134.132L134.79 215.152H142.285ZM108.362 221.278H116.969V218.937H108.763L108.362 221.278ZM116.969 216.042H109.25L108.915 218.021H116.969V216.042ZM125.57 216.042H117.858V218.021H125.906L125.57 216.042ZM108.836 213.207H101.597L100.939 215.185H108.5L108.836 213.207ZM116.969 213.207H109.731L109.395 215.185H116.963L116.969 213.207ZM73.261 218.027H81.0854L82.4015 216.049H74.9457L73.261 218.027ZM126.057 218.937H117.858V221.305H126.459L126.057 218.937ZM143.739 216.069L144.753 218.047H152.649L151.3 216.069H143.739ZM161.04 216.069L162.731 218.047H170.457L168.436 216.069H161.04ZM152.386 216.069L153.735 218.047H161.566L159.875 216.069H152.386ZM179.367 218.047L177.004 216.069H169.706L171.727 218.047H179.367ZM135.935 221.298L135.138 218.937H126.959L127.36 221.305L135.935 221.298ZM142.733 216.062H135.086L135.744 218.041H143.72L142.733 216.062ZM126.465 216.062L126.801 218.041H134.829L134.171 216.062H126.465ZM192.66 221.298L189.448 218.937H181.808L184.625 221.305L192.66 221.298ZM183.216 221.298L180.406 218.937H172.635L175.05 221.305L183.216 221.298ZM193.311 215.172L190.337 213.194H183.177L185.809 215.172H193.311ZM173.773 221.298L171.365 218.937H163.468L165.475 221.305L173.773 221.298ZM164.323 221.298L162.316 218.937H154.341L155.953 221.305L164.323 221.298ZM145.404 221.298L144.207 218.937H136.073L136.882 221.305L145.404 221.298ZM154.867 221.298L153.268 218.937H145.207L146.411 221.305L154.867 221.298ZM167.522 215.172L165.547 213.194H158.638L160.29 215.172H167.522ZM50.5382 222.169L47.3466 224.872H56.1186L58.8627 222.189L50.5382 222.169ZM40.2001 222.169L36.5479 224.872H45.9647L49.1563 222.189L40.2001 222.169ZM60.1393 222.169L57.3952 224.872H66.2856L68.5691 222.189L60.1393 222.169ZM53.0323 218.937H44.6223L41.4109 221.305H50.196L53.0323 218.937ZM59.83 213.233H52.394L49.7617 215.212H57.5334L59.83 213.233ZM56.4542 216.069H48.5575L45.8594 218.047H54.1181L56.4542 216.069ZM69.7338 222.195L67.4504 224.872H76.4395L78.2689 222.189L69.7338 222.195ZM204.024 222.195H195.377L199.03 224.879H208.131L204.024 222.195ZM175.958 222.195L178.696 224.879H187.481L184.282 222.195H175.958ZM79.3415 222.195L77.5121 224.872H157.309L155.486 222.169L79.3415 222.195ZM66.029 215.179L68.0031 213.2H61.212L58.8956 215.179H66.029ZM185.664 222.195L188.863 224.879H197.529L193.87 222.195H185.664ZM166.252 222.195L168.535 224.879H177.425L174.688 222.195H166.252ZM156.552 222.195L158.381 224.872H167.37L165.087 222.189L156.552 222.195ZM80.4668 218.937H72.5043L70.4906 221.305H78.8743L80.4668 218.937ZM71.3263 218.937H63.4296L61.0145 221.305H69.2995L71.3263 218.937ZM91.0682 216.069H83.507L82.1909 218.047H90.0877L91.0682 216.069ZM89.6204 218.937H81.5526L79.947 221.305H88.4096L89.6204 218.937ZM64.3641 218.054H72.0963L73.7809 216.075H66.3909L64.3641 218.054ZM51.5977 221.305H59.7774L62.1859 218.937H54.4142L51.5977 221.305ZM98.7478 218.937H90.6141L89.4099 221.305H97.9647L98.7478 218.937ZM55.4605 218.027H63.094L65.1208 216.049H57.8361L55.4605 218.027ZM99.7085 216.049H92.0816L91.0682 218.027H99.0504L99.7085 216.049ZM91.5222 215.159L92.5159 213.18H85.4417L84.1256 215.159H91.5222ZM83.0267 215.159L84.3428 213.18H77.3608L75.7025 215.159H83.0267ZM100.676 213.18H93.5293L92.5357 215.159H100.024L100.676 213.18ZM74.5245 215.159L76.1762 213.18H69.2798L67.3056 215.159H74.5245ZM107.849 218.918H99.6822L98.8925 221.278H107.447L107.849 218.918ZM108.336 216.049H100.663L100.005 218.027H108.033L108.336 216.049ZM180.722 218.027H189.731L190.942 218.911L194.16 221.278H202.669L194.673 216.042H178.367L180.722 218.027Z" fill="black"/>
<path d="M126.524 122.902H62.5673C60.3213 122.902 58.5005 124.726 58.5005 126.977V147.308C58.5005 149.559 60.3213 151.384 62.5673 151.384H126.524C128.77 151.384 130.591 149.559 130.591 147.308V126.977C130.591 124.726 128.77 122.902 126.524 122.902Z" fill="#E2E2E2"/>
<path d="M180.432 154.918H116.482C114.236 154.918 112.415 156.743 112.415 158.993V179.324C112.415 181.575 114.236 183.4 116.482 183.4H180.432C182.678 183.4 184.499 181.575 184.499 179.324V158.993C184.499 156.743 182.678 154.918 180.432 154.918Z" fill="#E2E2E2"/>
<path d="M103.374 154.918H58.5005V157.035H103.374V154.918Z" fill="#E2E2E2"/>
<path d="M103.374 159.092H58.5005V161.209H103.374V159.092Z" fill="#E2E2E2"/>
<path d="M103.374 163.26H58.5005V165.377H103.374V163.26Z" fill="#E2E2E2"/>
<path d="M103.374 167.428H58.5005V169.545H103.374V167.428Z" fill="#E2E2E2"/>
<path d="M103.374 171.596H58.5005V173.713H103.374V171.596Z" fill="#E2E2E2"/>
<path d="M103.374 175.763H58.5005V177.88H103.374V175.763Z" fill="#E2E2E2"/>
<path d="M103.374 179.938H58.5005V182.055H103.374V179.938Z" fill="#E2E2E2"/>
<mask id="mask0" style="mask-type:alpha" maskUnits="userSpaceOnUse" x="13" y="0" width="219" height="208">
<rect x="13.1401" width="218.476" height="207.067" fill="#C4C4C4"/>
</mask>
<g mask="url(#mask0)">
<path d="M119.601 74.4587C109.981 79.6025 91.8246 104.972 86.2114 106.541C80.5981 108.11 62.2646 96.5569 56.7764 90.2592C55.2664 91.539 53.6304 92.6614 51.8936 93.6092C54.5258 98.0605 75.0704 120.963 84.4149 120.33C93.7594 119.697 101.465 112.067 109.888 106.403C118.312 100.738 119.601 74.4587 119.601 74.4587Z" fill="#967900"/>
<path d="M56.7764 90.2589C53.3413 87.8058 54.3942 83.8161 51.7093 80.7035C49.0244 77.5909 48.6691 77.1029 48.1558 77.9075C47.6425 78.712 50.788 82.8072 49.9786 82.6885C48.5769 82.484 43.7007 73.2451 42.2398 73.5617C41.233 73.7859 44.5825 79.4308 46.4317 81.8444C43.8718 81.3168 40.7328 71.9922 39.5812 72.9879C38.8047 73.6474 42.1345 81.508 44.7733 83.2028C42.3714 82.761 39.3444 74.8014 38.0809 75.2894C37.0609 75.6851 40.3907 82.7874 42.7531 84.4228C40.6539 83.5919 38.8047 79.8594 38.1467 80.4661C37.3044 81.2179 41.3712 86.7771 45.517 90.4568C48.8073 93.3716 49.564 92.0988 51.9199 93.609C53.7499 92.8361 55.4026 91.696 56.7764 90.2589Z" fill="#F7D3C9"/>
<path d="M50.6101 94.2027C50.6101 94.2027 57.3355 89.6327 57.7303 89.2634C59.0464 90.312 61.2246 93.0817 61.3694 93.0883C60.2507 94.117 53.6701 99.5443 53.4135 99.5245C52.887 98.9178 50.6101 94.2027 50.6101 94.2027Z" fill="#CCA70D"/>
<path d="M98.3395 149.128C90.1006 210.536 90.1006 269.551 90.1006 310.542H97.3393C99.3134 305.543 110.678 262.771 110.678 239.427C117.127 219.69 131.144 158.974 132.545 149.128H98.3395Z" fill="black"/>
<path d="M139.975 149.128C145.114 165.305 142.001 201.733 140.376 234.448C146.147 254.977 145.555 292.084 145.555 310.542H138.316C134.243 300.373 104.999 168.457 102.241 149.128H139.975Z" fill="#141414"/>
<path d="M130.4 78.0724C131.92 80.0508 115.265 83.6514 114.113 83.0381C113.534 82.7348 113.58 80.4003 113.982 79.266C116.37 76.0941 115.561 73.3837 115.396 71.5373C110.928 72.6188 109.105 70.3701 108.816 63.9074C108.077 64.0002 107.328 63.8473 106.684 63.4722C106.598 62.5885 108.112 60.4123 107.927 58.3944C107.601 56.0188 107.552 53.6131 107.783 51.2262C108.112 47.8894 111.527 42.2379 119.259 42.1917C128.308 42.139 131.045 48.2455 131.486 56.0402C131.98 64.6922 120.766 65.4242 130.4 78.0724Z" fill="#F7D3C9"/>
<path d="M139.975 149.128H98.3391C100.524 140.674 102.728 131.112 100.662 122.816C99.1682 116.815 94.1538 111.388 94.5092 109.93C96.5952 101.357 109.895 86.2429 113.981 79.2659C113.966 80.42 114.079 81.5723 114.317 82.7016C118.417 81.4618 124.846 79.6615 130.4 78.0854C141.58 94.2486 139.132 130.993 139.975 149.128Z" fill="#BC9800"/>
<path d="M116.969 81.9104L119.463 87.252L129.814 78.2373L116.969 81.9104Z" fill="#BC9800"/>
<path d="M101.761 149.036C106.921 126.258 102.525 118.365 99.9057 113.65C98.9975 112.014 98.2737 110.722 98.2737 109.311C98.2737 106.277 104.078 97.2887 111.086 86.7244C112.244 84.9768 113.324 83.348 114.192 82.0027C114.232 82.2335 114.265 82.4577 114.317 82.7149L114.975 82.5105C114.113 83.8294 113.047 85.4516 111.856 87.2519C106.815 94.8422 99.2081 106.317 99.2015 109.317C99.2015 110.471 99.8596 111.612 100.709 113.188C103.393 118.015 107.888 126.094 102.683 149.141H102.196L101.761 149.036Z" fill="#BC9800"/>
<path d="M113.981 79.945L111.119 83.6379C111.119 83.6379 112.567 80.0769 114.106 78.2041C114.373 77.9885 114.66 77.7987 114.962 77.637C114.791 78.092 113.981 79.945 113.981 79.945Z" fill="#BC9800"/>
<path d="M134.243 81.8972C141.989 90.9976 159.651 110.418 159.651 124.161C159.651 135.484 145.799 159.422 140.89 164.348C138.994 162.449 135.717 158.677 135.717 158.677C142.798 148.08 145.772 132.075 145.917 125.216C144.443 120.686 136.783 111.605 129.229 104.035C121.674 96.4644 119.318 92.4022 120.674 87.6212C122.03 82.8402 129.88 76.7667 134.243 81.8972Z" fill="#CCA70D"/>
<path d="M134.921 159.409C133.197 159.409 132.071 159.475 130.545 161.005C132.071 161.796 140.889 165.39 140.889 165.39L134.921 159.409Z" fill="#CCA70D"/>
<path d="M140.936 165.746C140.936 165.746 134.526 159.033 134.046 158.657C135.063 156.908 136.209 155.237 137.474 153.659C138.843 154.727 145.884 160.814 145.917 161.11C145.312 161.823 140.936 165.746 140.936 165.746Z" fill="#CCA70D"/>
<path d="M123.76 67.1584L123.425 66.8683C124.122 66.044 125.787 63.782 126.886 62.2851L127.623 61.2893C127.985 60.8013 128.031 60.7354 128.209 60.8541L128.281 61.1574L128.116 61.0651L128.248 61.197C128.189 61.2629 127.728 61.8894 127.248 62.5489C126.142 64.0524 124.471 66.3209 123.76 67.1584Z" fill="#CED3F8"/>
<path d="M106.992 48.3772C106.255 52.1295 108.967 57.2798 116.008 58.513C124.457 59.9902 123.246 65.035 121.562 68.2663C118.739 73.8056 126.76 81.7916 132.749 85.5109C140.784 90.5029 150.727 89.4214 156.531 83.7831C164.823 75.7246 153.78 70.9502 145.074 70.9568C141.126 70.9568 135.059 67.4881 135.704 62.2653C136.263 57.7744 136.217 52.6175 134.986 48.852C132.413 40.998 126.484 36.7643 119.193 37.4304C111.901 38.0964 108.289 41.7695 106.992 48.3772Z" fill="black"/>
<path d="M127.07 104.12L114.055 102.208L112.931 109.888L125.947 111.8L127.07 104.12Z" fill="white"/>
<path d="M123.732 106.615L116.544 105.559L116.275 107.392L123.464 108.448L123.732 106.615Z" fill="black"/>
</g>
<path d="M202.017 24.0105H142.916C142.044 24.0105 141.207 24.3579 140.59 24.9762C139.973 25.5946 139.626 26.4333 139.626 27.3078V56.9435C139.626 57.8179 139.973 58.6566 140.59 59.275C141.207 59.8933 142.044 60.2407 142.916 60.2407H149.497V68.6487L157.124 60.2407H201.99C202.863 60.2407 203.7 59.8933 204.317 59.275C204.934 58.6566 205.281 57.8179 205.281 56.9435V27.3144C205.282 26.4433 204.94 25.6069 204.329 24.9879C203.717 24.3688 202.886 24.0175 202.017 24.0105Z" fill="#E2BD1E"/>
<path d="M164.343 32.4382C164.343 32.2113 164.276 31.9894 164.15 31.8007C164.024 31.612 163.845 31.465 163.636 31.3781C163.427 31.2913 163.197 31.2685 162.974 31.3128C162.752 31.3571 162.548 31.4664 162.388 31.6268C162.228 31.7873 162.119 31.9918 162.075 32.2144C162.031 32.437 162.053 32.6677 162.14 32.8773C162.227 33.087 162.373 33.2662 162.562 33.3923C162.75 33.5184 162.971 33.5857 163.198 33.5857C163.348 33.5865 163.498 33.5575 163.637 33.5001C163.776 33.4427 163.903 33.3582 164.009 33.2515C164.116 33.1448 164.2 33.018 164.257 32.8783C164.315 32.7387 164.344 32.5891 164.343 32.4382Z" fill="white"/>
<path d="M169.087 32.4382C169.087 32.2113 169.02 31.9894 168.894 31.8007C168.769 31.612 168.59 31.465 168.381 31.3781C168.171 31.2913 167.941 31.2685 167.719 31.3128C167.497 31.3571 167.293 31.4664 167.133 31.6268C166.973 31.7873 166.864 31.9918 166.819 32.2144C166.775 32.437 166.798 32.6677 166.885 32.8773C166.971 33.087 167.118 33.2662 167.306 33.3923C167.495 33.5184 167.716 33.5857 167.942 33.5857C168.246 33.5857 168.537 33.4648 168.752 33.2496C168.967 33.0344 169.087 32.7425 169.087 32.4382Z" fill="white"/>
<path d="M173.832 32.4382C173.832 32.2113 173.765 31.9894 173.639 31.8007C173.513 31.612 173.334 31.465 173.125 31.3781C172.916 31.2913 172.686 31.2685 172.464 31.3128C172.242 31.3571 172.037 31.4664 171.877 31.6268C171.717 31.7873 171.608 31.9918 171.564 32.2144C171.52 32.437 171.543 32.6677 171.629 32.8773C171.716 33.087 171.863 33.2662 172.051 33.3923C172.239 33.5184 172.461 33.5857 172.687 33.5857C172.991 33.5857 173.282 33.4648 173.497 33.2496C173.711 33.0344 173.832 32.7425 173.832 32.4382Z" fill="white"/>
<path d="M178.577 32.4382C178.577 32.2113 178.51 31.9894 178.384 31.8007C178.258 31.612 178.079 31.465 177.87 31.3781C177.661 31.2913 177.43 31.2685 177.208 31.3128C176.986 31.3571 176.782 31.4664 176.622 31.6268C176.462 31.7873 176.353 31.9918 176.309 32.2144C176.264 32.437 176.287 32.6677 176.374 32.8773C176.46 33.087 176.607 33.2662 176.796 33.3923C176.984 33.5184 177.205 33.5857 177.432 33.5857C177.582 33.5857 177.731 33.556 177.87 33.4983C178.009 33.4406 178.135 33.3561 178.241 33.2496C178.348 33.143 178.432 33.0165 178.49 32.8773C178.547 32.7381 178.577 32.5889 178.577 32.4382Z" fill="white"/>
<path d="M183.321 32.4382C183.321 32.2113 183.254 31.9894 183.128 31.8007C183.003 31.612 182.824 31.465 182.614 31.3781C182.405 31.2913 182.175 31.2685 181.953 31.3128C181.731 31.3571 181.527 31.4664 181.367 31.6268C181.206 31.7873 181.097 31.9918 181.053 32.2144C181.009 32.437 181.032 32.6677 181.118 32.8773C181.205 33.087 181.352 33.2662 181.54 33.3923C181.728 33.5184 181.95 33.5857 182.176 33.5857C182.48 33.5857 182.771 33.4648 182.986 33.2496C183.201 33.0344 183.321 32.7425 183.321 32.4382Z" fill="white"/>
<path d="M195.41 39.969H149.524C149.349 39.969 149.182 39.8996 149.058 39.7759C148.935 39.6522 148.865 39.4845 148.865 39.3096C148.865 39.1347 148.935 38.967 149.058 38.8433C149.182 38.7196 149.349 38.6501 149.524 38.6501H195.41C195.585 38.6501 195.752 38.7196 195.875 38.8433C195.999 38.967 196.068 39.1347 196.068 39.3096C196.068 39.4845 195.999 39.6522 195.875 39.7759C195.752 39.8996 195.585 39.969 195.41 39.969Z" fill="black"/>
<path d="M195.41 44.7898H149.524C149.349 44.7898 149.182 44.7204 149.058 44.5967C148.935 44.473 148.865 44.3053 148.865 44.1304C148.865 43.9555 148.935 43.7878 149.058 43.6641C149.182 43.5404 149.349 43.4709 149.524 43.4709H195.41C195.585 43.4709 195.752 43.5404 195.875 43.6641C195.999 43.7878 196.068 43.9555 196.068 44.1304C196.068 44.3053 195.999 44.473 195.875 44.5967C195.752 44.7204 195.585 44.7898 195.41 44.7898Z" fill="black"/>
<path d="M188.876 49.617H149.524C149.349 49.617 149.182 49.5475 149.058 49.4239C148.935 49.3002 148.865 49.1324 148.865 48.9575C148.865 48.7826 148.935 48.6149 149.058 48.4913C149.182 48.3676 149.349 48.2981 149.524 48.2981H188.876C189.05 48.2981 189.217 48.3676 189.341 48.4913C189.464 48.6149 189.534 48.7826 189.534 48.9575C189.534 49.1324 189.464 49.3002 189.341 49.4239C189.217 49.5475 189.05 49.617 188.876 49.617Z" fill="black"/>
</svg>
